<?xml version="1.0" standalone="no"?>
<!DOCTYPE svg PUBLIC "-//W3C//DTD SVG 20010904//EN"
 "http://www.w3.org/TR/2001/REC-SVG-20010904/DTD/svg10.dtd">
<svg version="1.0" xmlns="http://www.w3.org/2000/svg"
 width="1024.000000pt" height="1024.000000pt" viewBox="0 0 1024.000000 1024.000000"
 preserveAspectRatio="xMidYMid meet">
<metadata>
Created by potrace 1.16, written by Peter Selinger 2001-2019
</metadata>
<g transform="translate(0.000000,1024.000000) scale(0.100000,-0.100000)"
fill="#000000" stroke="none">
<path d="M187 10052 c-147 -147 -188 -194 -185 -211 2 -18 40 15 213 189 175
175 206 210 185 210 -19 0 -69 -44 -213 -188z"/>
<path d="M287 9952 c-227 -227 -288 -294 -285 -311 2 -17 59 35 313 289 255
255 305 310 285 310 -20 0 -89 -64 -313 -288z"/>
<path d="M387 9852 c-307 -307 -388 -393 -385 -411 2 -17 79 55 413 389 335
335 405 410 385 410 -20 0 -109 -84 -413 -388z"/>
<path d="M487 9752 c-388 -388 -488 -493 -485 -511 2 -17 99 74 513 489 415
415 505 510 485 510 -20 0 -129 -104 -513 -488z"/>
<path d="M587 9652 c-468 -468 -588 -593 -585 -611 2 -17 118 94 613 589 495
495 605 610 585 610 -20 0 -149 -124 -613 -588z"/>
<path d="M687 9552 c-548 -548 -688 -693 -685 -711 2 -17 138 114 713 689 575
575 705 710 685 710 -20 0 -169 -144 -713 -688z"/>
<path d="M787 9452 c-629 -629 -788 -793 -785 -811 2 -17 158 133 813 789 655
655 805 810 785 810 -20 0 -189 -164 -813 -788z"/>
<path d="M887 9352 c-709 -709 -888 -893 -885 -911 2 -17 177 153 913 889 735
735 905 910 885 910 -20 0 -209 -184 -913 -888z"/>
<path d="M987 9252 c-789 -789 -988 -993 -985 -1011 2 -17 197 173 1013 989
815 815 1005 1010 985 1010 -20 0 -229 -204 -1013 -988z"/>
<path d="M1087 9152 c-870 -870 -1088 -1093 -1085 -1111 2 -17 217 193 1113
1089 895 895 1105 1110 1085 1110 -20 0 -249 -224 -1113 -1088z"/>
<path d="M1187 9052 c-950 -950 -1188 -1193 -1185 -1211 2 -17 237 212 1213
1189 975 975 1205 1210 1185 1210 -20 0 -269 -244 -1213 -1188z"/>
<path d="M1287 8952 c-1030 -1030 -1288 -1293 -1285 -1311 2 -17 256 232 1313
1289 1055 1055 1305 1310 1285 1310 -20 0 -289 -264 -1313 -1288z"/>
<path d="M1387 8852 c-1110 -1110 -1388 -1393 -1385 -1411 2 -17 276 252 1413
1389 1135 1135 1405 1410 1385 1410 -20 0 -309 -284 -1413 -1388z"/>
<path d="M1487 8752 c-1191 -1191 -1488 -1493 -1485 -1511 2 -17 296 271 1513
1489 1215 1215 1505 1510 1485 1510 -20 0 -329 -304 -1513 -1488z"/>
<path d="M1587 8652 c-1271 -1271 -1588 -1593 -1585 -1611 2 -17 315 291 1613
1589 1295 1295 1605 1610 1585 1610 -20 0 -349 -324 -1613 -1588z"/>
<path d="M1687 8552 c-1351 -1351 -1688 -1693 -1685 -1711 2 -17 335 311 1713
1689 1375 1375 1705 1710 1685 1710 -20 0 -369 -344 -1713 -1688z"/>
<path d="M1787 8452 c-1432 -1432 -1788 -1793 -1785 -1811 2 -17 355 330 1813
1789 1455 1455 1805 1810 1785 1810 -20 0 -389 -364 -1813 -1788z"/>
<path d="M1887 8352 c-1512 -1512 -1888 -1893 -1885 -1911 2 -17 374 350 1913
1889 1535 1535 1905 1910 1885 1910 -20 0 -409 -384 -1913 -1888z"/>
<path d="M1987 8252 c-1592 -1592 -1988 -1993 -1985 -2011 2 -17 394 370 2013
1989 1615 1615 2005 2010 1985 2010 -20 0 -429 -404 -2013 -1988z"/>
<path d="M2087 8152 c-1673 -1673 -2088 -2093 -2085 -2111 2 -17 414 390 2113
2089 1695 1695 2105 2110 2085 2110 -20 0 -449 -424 -2113 -2088z"/>
<path d="M2187 8052 c-1753 -1753 -2188 -2193 -2185 -2211 2 -17 433 409 2213
2189 1775 1775 2205 2210 2185 2210 -20 0 -469 -444 -2213 -2188z"/>
<path d="M3330 8994 c-759 -759 -1266 -1259 -1299 -1281 -77 -50 -165 -136
-216 -213 -30 -44 -330 -351 -929 -950 -702 -701 -886 -890 -886 -910 0 -20
166 141 863 838 l863 863 -24 -98 -24 -98 -839 -840 c-663 -664 -839 -845
-839 -865 0 -20 162 137 839 814 l839 838 5 -68 4 -69 -843 -845 c-667 -668
-844 -850 -844 -870 0 -20 93 68 495 470 l496 495 -74 -111 c-41 -61 -95 -148
-120 -195 -43 -78 -75 -113 -422 -459 -293 -293 -375 -380 -375 -400 0 -20 64
39 355 330 l355 355 -45 -112 c-25 -62 -45 -115 -45 -120 0 -4 -140 -148 -310
-318 -241 -241 -310 -315 -310 -335 0 -20 52 27 296 270 163 162 293 286 290
275 -18 -66 -36 -141 -36 -155 0 -8 -124 -139 -275 -290 -213 -213 -275 -280
-275 -300 0 -20 47 22 268 243 l268 268 11 -63 11 -63 -279 -280 c-215 -216
-279 -286 -279 -305 0 -20 51 26 284 259 l283 283 15 -60 15 -60 -298 -298
c-233 -233 -299 -304 -299 -324 0 -20 54 29 303 278 l304 304 16 -59 17 -58
-320 -320 c-249 -249 -320 -326 -320 -345 0 -20 59 34 325 300 217 217 326
319 329 309 3 -7 12 -32 20 -55 l14 -41 -344 -344 c-269 -268 -344 -349 -344
-369 0 -20 63 38 350 325 233 233 351 344 354 334 3 -7 12 -32 20 -55 l14 -41
-369 -369 c-289 -288 -369 -374 -369 -394 0 -20 68 43 375 350 206 206 376
372 378 370 2 -3 12 -27 22 -53 l18 -49 -396 -396 c-310 -310 -397 -403 -397
-422 0 -20 75 50 403 378 l404 404 22 -53 23 -52 -426 -426 c-333 -333 -426
-432 -426 -451 0 -20 81 56 433 408 l434 434 22 -53 22 -53 -456 -456 c-356
-357 -455 -460 -455 -480 0 -20 87 62 465 440 l464 464 21 -48 c11 -26 20 -51
20 -54 0 -4 -218 -225 -485 -492 -381 -381 -485 -490 -485 -510 0 -20 92 67
495 470 272 272 496 492 498 490 3 -3 15 -25 27 -49 l22 -44 -521 -521 c-409
-409 -521 -526 -521 -546 0 -20 100 75 528 503 l529 529 28 -47 27 -48 -556
-556 c-437 -437 -556 -561 -556 -581 0 -20 107 82 564 539 l564 564 27 -48 28
-47 -591 -591 c-466 -466 -592 -597 -592 -617 0 -20 114 89 598 573 328 328
599 597 602 597 3 0 17 -20 30 -45 l25 -45 -628 -628 c-494 -494 -627 -632
-627 -652 0 -20 122 97 637 612 l638 638 29 -46 29 -46 -666 -666 c-526 -526
-667 -672 -667 -692 0 -20 129 104 673 648 369 369 675 672 678 672 4 0 19
-19 34 -41 l27 -42 -706 -706 c-557 -557 -706 -711 -706 -731 0 -20 137 112
713 688 391 391 715 712 718 712 4 0 19 -19 34 -41 l27 -42 -746 -746 c-589
-589 -746 -751 -746 -771 0 -20 145 120 755 730 l756 755 29 -35 c16 -19 30
-40 30 -45 0 -6 -353 -363 -785 -795 -621 -621 -785 -790 -785 -810 0 -20 153
128 798 773 l798 798 33 -42 34 -41 -832 -832 c-657 -657 -831 -836 -831 -856
0 -20 162 137 843 817 l842 842 32 -43 31 -43 -874 -874 c-693 -692 -874 -879
-874 -899 0 -20 170 145 886 860 l885 885 34 -40 35 -40 -920 -920 c-729 -729
-920 -925 -920 -945 0 -20 180 155 933 906 l932 931 34 -39 35 -39 -967 -967
c-766 -766 -967 -972 -967 -992 0 -20 190 165 978 953 l978 978 32 -34 c18
-18 32 -37 32 -42 0 -6 -454 -465 -1010 -1020 -801 -801 -1010 -1015 -1010
-1035 0 -20 198 173 1025 1000 l1025 1025 37 -38 38 -37 -1063 -1063 c-842
-842 -1062 -1067 -1062 -1087 0 -20 209 184 1075 1050 l1075 1075 37 -38 38
-37 -1045 -1045 c-842 -842 -1040 -1045 -1020 -1045 20 0 239 214 1057 1032
l1033 1033 37 -38 38 -37 -995 -995 c-802 -802 -990 -995 -970 -995 20 0 229
204 1006 981 l982 982 41 -34 40 -34 -947 -947 c-763 -764 -942 -948 -922
-948 20 0 220 195 960 934 l935 935 40 -35 39 -35 -899 -899 c-727 -727 -895
-900 -875 -900 20 0 209 184 910 885 487 487 887 885 890 885 3 0 23 -14 44
-32 l38 -31 -854 -854 c-689 -689 -848 -853 -828 -853 20 0 200 175 865 840
462 462 842 840 845 840 3 0 23 -14 44 -32 l38 -31 -809 -809 c-652 -652 -803
-808 -783 -808 20 0 192 167 822 797 l797 797 40 -29 c23 -15 41 -30 41 -34 0
-3 -343 -349 -762 -768 -617 -617 -758 -763 -738 -763 20 0 183 158 779 754
l755 755 43 -32 44 -31 -723 -723 c-585 -585 -718 -723 -698 -723 20 0 174
149 735 710 390 391 713 710 717 710 4 0 26 -12 47 -27 l40 -28 -682 -682
c-552 -553 -677 -683 -657 -683 20 0 167 142 697 672 l671 671 46 -29 46 -29
-643 -642 c-519 -520 -637 -643 -617 -643 20 0 159 134 657 632 l631 631 47
-28 48 -27 -604 -604 c-490 -490 -599 -604 -579 -604 20 0 151 125 619 594
l594 594 41 -25 c23 -14 43 -28 46 -30 2 -2 -250 -258 -560 -568 -458 -458
-560 -565 -540 -565 20 0 144 119 582 557 l556 556 47 -28 48 -27 -529 -529
c-429 -429 -524 -529 -504 -529 20 0 137 112 546 521 l521 521 48 -27 47 -28
-494 -494 c-400 -400 -488 -493 -468 -493 20 0 130 105 511 486 l486 486 44
-22 c24 -12 46 -24 49 -27 2 -2 -203 -211 -455 -463 -374 -374 -455 -460 -435
-460 20 0 123 98 477 452 l452 452 51 -24 51 -24 -428 -428 c-348 -348 -423
-428 -403 -428 19 0 116 91 445 420 l420 420 53 -22 53 -22 -398 -398 c-324
-324 -393 -398 -373 -398 19 0 110 85 415 390 l390 390 53 -22 53 -22 -368
-368 c-301 -301 -363 -368 -343 -368 20 0 104 79 385 360 293 293 363 359 380
354 11 -4 36 -13 55 -21 l34 -14 -339 -339 c-279 -279 -335 -340 -315 -340 20
0 98 73 359 333 l333 334 55 -20 55 -20 -314 -314 c-256 -256 -308 -313 -288
-313 19 0 94 69 332 307 l307 307 57 -18 57 -18 -289 -289 c-238 -238 -284
-289 -264 -289 20 0 88 63 309 284 l283 283 52 -15 c28 -8 53 -16 56 -19 2 -2
-115 -123 -260 -268 -218 -218 -260 -265 -240 -265 19 0 85 60 286 261 l261
261 57 -13 c31 -7 56 -15 56 -18 0 -3 -109 -115 -242 -248 -200 -200 -238
-243 -218 -243 19 0 81 56 266 241 l241 241 62 -13 63 -12 -228 -228 c-190
-190 -225 -229 -204 -229 19 0 77 52 254 229 l228 228 71 13 c40 7 83 17 97
22 14 5 -87 -104 -225 -242 -206 -206 -245 -250 -225 -250 19 0 84 59 281 256
l257 257 117 42 118 43 -299 -299 c-246 -246 -294 -299 -274 -299 20 0 95 70
340 316 299 299 319 318 400 359 47 24 123 66 170 94 l85 52 -410 -411 c-328
-328 -405 -410 -386 -410 19 0 152 126 570 540 300 297 561 554 578 572 18 18
241 243 495 501 l462 467 76 0 75 0 -1040 -1040 c-839 -839 -1035 -1040 -1015
-1040 20 0 240 215 1065 1040 l1040 1040 75 0 75 0 -1040 -1040 c-839 -839
-1035 -1040 -1015 -1040 20 0 240 215 1065 1040 l1040 1040 75 0 75 0 -1040
-1040 c-839 -839 -1035 -1040 -1015 -1040 20 0 240 215 1065 1040 l1040 1040
75 0 75 0 -1040 -1040 c-839 -839 -1035 -1040 -1015 -1040 20 0 240 215 1065
1040 l1040 1040 75 0 75 0 -1040 -1040 c-839 -839 -1035 -1040 -1015 -1040 20
0 240 215 1065 1040 l1040 1040 75 0 75 0 -1040 -1040 c-838 -838 -1035 -1040
-1015 -1040 20 0 241 216 1065 1039 l1040 1039 79 5 80 6 -1045 -1045 c-842
-842 -1039 -1044 -1019 -1044 20 0 243 218 1079 1054 1021 1021 1057 1056
1130 1092 101 49 192 141 243 244 35 71 67 104 533 570 389 389 495 500 495
520 0 20 -91 -66 -489 -464 -448 -447 -489 -486 -481 -450 5 21 10 59 10 84
l0 45 480 480 c377 377 480 485 480 505 0 20 -89 -64 -480 -455 l-480 -480 0
75 0 75 480 480 c377 377 480 485 480 505 0 20 -89 -64 -480 -455 l-480 -480
0 75 0 75 480 480 c377 377 480 485 480 505 0 20 -89 -64 -480 -455 l-480
-480 0 75 0 75 480 480 c377 377 480 485 480 505 0 20 -89 -64 -480 -455
l-480 -480 0 75 0 75 480 480 c377 377 480 485 480 505 0 20 -89 -64 -480
-455 l-480 -480 0 75 0 75 480 480 c377 377 480 485 480 505 0 20 -89 -64
-480 -455 l-480 -480 0 75 0 75 480 480 c377 377 480 485 480 505 0 20 -89
-64 -480 -455 l-480 -480 0 75 0 75 480 480 c377 377 480 485 480 505 0 20
-89 -64 -480 -455 l-480 -480 0 75 0 75 480 480 c377 377 480 485 480 505 0
20 -89 -64 -480 -455 l-480 -480 0 75 0 75 480 480 c377 377 480 485 480 505
0 20 -89 -64 -480 -455 l-480 -480 0 75 0 75 480 480 c377 377 480 485 480
505 0 20 -89 -64 -480 -455 l-480 -480 0 75 0 75 480 480 c377 377 480 485
480 505 0 20 -89 -64 -480 -455 l-480 -480 0 75 0 75 480 480 c377 377 480
485 480 505 0 20 -89 -64 -480 -455 l-480 -480 0 75 0 75 480 480 c377 377
480 485 480 505 0 20 -89 -64 -480 -455 l-480 -480 0 75 0 75 480 480 c377
377 480 485 480 505 0 20 -89 -64 -480 -455 l-480 -480 0 75 0 75 480 480
c377 377 480 485 480 505 0 20 -89 -64 -480 -455 l-480 -480 0 75 0 75 480
480 c377 377 480 485 480 505 0 20 -89 -64 -480 -455 l-480 -480 0 75 0 75
480 480 c377 377 480 485 480 505 0 20 -89 -64 -480 -455 l-480 -480 0 75 0
75 480 480 c377 377 480 485 480 505 0 20 -89 -64 -480 -455 l-480 -480 0 75
0 75 480 480 c377 377 480 485 480 505 0 20 -89 -64 -480 -455 l-480 -480 0
75 0 75 480 480 c377 377 480 485 480 505 0 20 -89 -64 -480 -455 l-480 -480
0 75 0 75 480 480 c377 377 480 485 480 505 0 20 -89 -64 -480 -455 l-480
-480 0 75 0 75 480 480 c377 377 480 485 480 505 0 20 -90 -65 -483 -458
l-483 -483 -11 63 -11 63 494 495 c387 388 494 500 494 520 0 20 -94 -69 -499
-474 l-499 -499 -15 35 c-8 19 -17 43 -21 54 -5 15 98 123 514 539 409 409
520 525 520 545 0 20 -99 -74 -528 -503 l-529 -529 -28 47 -27 48 556 556
c437 437 556 561 556 581 0 20 -108 -83 -567 -542 l-568 -567 -34 40 -34 41
602 602 c473 473 601 606 601 626 0 20 -117 -92 -614 -589 -611 -611 -615
-614 -638 -598 -13 9 -32 23 -43 32 -19 15 9 44 638 673 518 518 657 662 657
682 0 20 -129 -104 -673 -648 l-673 -673 -51 24 -51 24 724 724 c573 572 724
729 724 749 0 20 -142 -117 -742 -717 l-743 -743 -63 12 -63 12 805 805 c637
637 806 811 806 831 0 20 -161 -136 -833 -808 l-832 -832 -75 0 -75 0 908 908
c718 718 907 912 907 932 0 20 -181 -156 -933 -908 l-932 -932 -75 0 -75 0
1008 1008 c798 798 1007 1012 1007 1032 0 20 -201 -176 -1033 -1008 l-1032
-1032 -75 0 -75 0 1108 1108 c878 878 1107 1112 1107 1132 0 20 -221 -196
-1133 -1108 l-1132 -1132 -75 0 -75 0 1200 1200 c967 967 1195 1200 1175 1200
-20 0 -272 -247 -1225 -1200 l-1200 -1200 -75 0 -75 0 1200 1200 c967 967
1195 1200 1175 1200 -20 0 -288 -263 -1305 -1280 -1015 -1015 -1275 -1280
-1256 -1280 14 0 38 12 53 27 l28 27 0 -42 c0 -63 26 -118 69 -144 36 -23 37
-23 546 -28 l510 -5 55 -27 c30 -15 77 -50 105 -78 43 -43 47 -52 35 -64 -8
-7 -759 -655 -1667 -1440 l-1653 -1426 -1689 1452 c-1590 1367 -1689 1454
-1673 1470 37 37 137 88 202 102 58 14 158 16 631 16 548 0 564 1 605 21 45
21 84 81 84 130 0 18 32 57 123 147 l122 122 -3 -77 -4 -78 -51 -52 c-47 -48
-49 -53 -27 -53 13 0 37 12 52 27 l28 27 0 -65 c0 -103 19 -273 45 -405 137
-684 638 -1197 1316 -1346 118 -26 468 -36 646 -19 239 23 457 80 643 167 200
94 411 262 425 338 16 81 -44 177 -119 191 -62 12 -106 -8 -197 -91 -181 -164
-408 -261 -699 -300 -145 -19 -422 -18 -541 2 -480 82 -870 394 -1053 844
-117 286 -146 678 -76 1021 155 758 803 1175 1615 1039 489 -82 859 -371 994
-776 53 -158 78 -514 51 -709 -34 -236 -118 -406 -232 -467 -37 -20 -122 -24
-179 -8 -94 26 -175 148 -185 277 -7 98 -22 148 -53 176 -77 73 -215 51 -254
-40 -8 -21 -18 -65 -21 -98 -9 -99 -33 -154 -95 -216 -85 -84 -141 -104 -306
-104 -122 0 -133 2 -180 27 -100 52 -181 167 -221 313 -25 94 -30 298 -9 371
51 177 178 304 333 334 50 9 148 0 227 -21 130 -35 234 -128 259 -231 9 -39
61 -95 101 -108 57 -19 124 -3 167 39 44 44 54 88 38 162 -32 151 -152 301
-309 383 -129 68 -379 117 -509 101 -196 -24 -389 -144 -500 -309 -100 -149
-142 -296 -142 -494 0 -286 89 -537 247 -697 76 -77 152 -124 258 -162 74 -26
91 -28 230 -28 111 0 167 5 215 18 91 24 215 88 283 147 l59 50 28 -34 c145
-184 432 -241 651 -131 192 98 319 311 374 629 8 49 15 107 15 130 l0 41 1282
1282 c1032 1032 1278 1283 1258 1283 -20 0 -283 -258 -1278 -1252 l-1253
-1253 7 80 6 80 1172 1173 c943 944 1166 1172 1146 1172 -20 0 -263 -238
-1177 -1152 l-1153 -1153 0 75 0 75 1077 1077 c868 868 1073 1078 1053 1078
-20 0 -244 -219 -1082 -1057 l-1056 -1056 -7 68 -8 67 989 989 c797 797 984
989 964 989 -20 0 -226 -201 -992 -967 -631 -631 -969 -962 -972 -953 -3 8
-10 35 -16 59 l-12 44 909 909 c733 733 903 908 883 908 -20 0 -209 -184 -910
-885 -487 -487 -887 -885 -891 -885 -3 0 -13 23 -23 51 l-19 51 834 834 c673
673 829 834 809 834 -20 0 -196 -171 -841 -816 l-816 -816 -27 48 -27 48 768
768 c620 620 763 768 743 768 -20 0 -183 -158 -779 -752 -414 -414 -755 -748
-757 -742 -3 5 -15 26 -28 45 l-25 34 707 708 c572 572 702 707 682 707 -20 0
-171 -146 -717 -692 l-692 -692 -35 39 -35 40 652 653 c528 528 647 652 627
652 -20 0 -160 -135 -661 -636 l-637 -637 -41 34 -40 34 602 603 c487 487 597
602 577 602 -20 0 -150 -125 -615 -590 l-590 -590 -40 35 -40 34 555 555 c450
451 550 556 530 556 -20 0 -141 -116 -570 -545 l-545 -545 -40 26 c-22 15 -42
29 -45 31 -2 2 227 235 510 518 418 418 510 515 490 515 -20 0 -134 -109 -532
-507 l-506 -506 -47 28 -48 27 479 479 c389 389 474 479 454 479 -20 0 -127
-102 -497 -472 l-472 -472 -51 24 -51 24 448 448 c364 364 443 448 423 448
-20 0 -121 -96 -466 -441 l-441 -441 -57 18 -57 18 423 423 c344 344 418 423
398 423 -19 0 -116 -91 -442 -417 l-416 -416 -62 13 -62 13 404 404 c328 328
398 403 378 403 -19 0 -113 -88 -425 -399 l-400 -399 -63 10 -64 11 389 389
c317 317 383 388 363 388 -20 0 -109 -84 -410 -385 l-385 -385 -67 0 c-38 0
-68 3 -68 7 0 5 170 178 377 385 308 308 373 378 353 378 -19 0 -109 -84 -405
-379 l-380 -379 -79 -5 -80 -6 385 385 c313 313 379 384 359 384 -19 0 -109
-85 -410 -385 l-385 -385 -65 -10 c-36 -6 -76 -13 -90 -16 -17 -3 104 124 375
395 327 328 395 401 375 401 -20 0 -114 -89 -435 -410 -225 -225 -416 -410
-422 -410 -7 0 -54 -13 -105 -30 l-92 -29 439 439 c359 359 435 440 415 440
-20 0 -123 -98 -480 -455 -429 -429 -460 -458 -540 -502 -286 -155 -504 -370
-645 -638 -46 -86 -63 -106 -404 -447 l-356 -358 -75 0 -75 0 1200 1200 c967
967 1195 1200 1175 1200 -20 0 -272 -247 -1225 -1200 l-1200 -1200 -75 0 -75
0 1200 1200 c967 967 1195 1200 1175 1200 -20 0 -272 -247 -1225 -1200 l-1200
-1200 -75 0 -75 0 1200 1200 c967 967 1195 1200 1175 1200 -20 0 -272 -247
-1225 -1200 l-1200 -1200 -75 0 -75 0 1200 1200 c967 967 1195 1200 1175 1200
-20 0 -272 -247 -1225 -1200 l-1200 -1200 -75 0 -75 0 1200 1200 c966 966
1195 1200 1175 1200 -20 0 -273 -248 -1225 -1199 l-1200 -1199 -98 -24 -98
-24 1223 1223 c985 985 1218 1223 1198 1223 -20 0 -280 -256 -1270 -1246z
m680 -644 l-36 -111 -199 -199 -200 -200 -75 0 -75 0 310 310 c170 171 310
310 310 310 0 0 -15 -50 -35 -110z m-64 -269 l-14 -83 -128 -129 -128 -128
-14 30 c-8 16 -24 35 -35 40 -18 10 -4 27 154 185 95 95 174 172 176 171 1 -2
-4 -40 -11 -86z m-233 -2473 c928 -802 1701 -1464 1716 -1473 52 -27 104 -29
152 -7 27 13 689 578 1709 1460 l1665 1439 3 -2189 c1 -1204 -2 -2196 -6
-2204 -7 -12 -69 31 -283 192 -1375 1038 -2114 1587 -2148 1596 -49 12 -112
-4 -152 -40 -48 -43 -58 -124 -23 -193 8 -16 339 -271 836 -645 453 -340 978
-736 1169 -879 l345 -260 -935 -5 c-871 -5 -938 -6 -968 -23 -43 -23 -73 -83
-73 -144 0 -48 -1 -49 -99 -147 l-98 -98 -28 47 -27 47 78 79 c70 70 76 79 53
79 -17 0 -44 -19 -88 -64 l-64 -65 -33 42 -32 42 21 24 22 24 -37 -6 c-36 -5
-39 -4 -108 78 -106 125 -314 322 -418 395 -123 87 -245 152 -361 192 -93 31
-101 33 -256 32 -148 0 -165 -2 -227 -26 -111 -42 -177 -87 -289 -198 -125
-124 -187 -205 -271 -357 -35 -62 -68 -112 -74 -113 -6 0 -19 -9 -29 -20 -15
-17 -31 -20 -93 -20 -74 0 -75 0 -57 20 18 19 17 20 -7 20 -14 0 -31 -7 -38
-15 -19 -23 -46 -20 -230 31 -81 23 -301 133 -415 210 -279 185 -599 482 -833
773 -265 330 -422 681 -422 946 0 127 1 128 104 187 270 153 479 329 565 476
63 106 86 197 85 327 0 127 -18 206 -74 337 -78 182 -198 348 -389 539 -215
214 -405 356 -600 446 -148 69 -158 73 -177 73 -14 0 -8 10 24 43 26 27 42 52
42 67 0 22 -6 18 -60 -35 -34 -33 -68 -59 -78 -58 -9 1 -39 5 -66 8 l-49 7
126 126 c70 70 127 133 127 140 0 6 8 12 18 12 9 0 36 9 59 19 50 23 83 79 83
141 0 30 3 39 12 34 7 -5 772 -664 1701 -1466z m-1966 1292 c21 -11 44 -20 53
-20 8 0 -50 -65 -129 -144 -131 -132 -147 -144 -187 -150 -24 -3 -71 -17 -106
-31 l-63 -25 195 195 c107 107 196 195 197 195 2 0 20 -9 40 -20z m5045 -4803
l27 -14 -114 -113 -113 -113 -25 49 -26 49 97 98 c93 93 97 96 112 78 8 -11
27 -26 42 -34z m38 -202 l-185 -185 -19 56 -18 56 128 129 129 129 75 0 75 0
-185 -185z m115 -85 l-270 -270 -8 66 -9 67 204 204 203 203 75 0 75 0 -270
-270z m465 267 c0 -1 -173 -175 -385 -387 -244 -244 -382 -374 -375 -356 6 15
15 58 20 94 l9 66 293 293 293 293 72 0 c40 0 73 -1 73 -3z"/>
<path d="M4498 4417 c-47 -21 -1419 -1109 -1440 -1141 -15 -24 -18 -43 -14
-85 8 -91 61 -142 153 -149 l58 -4 220 174 c121 96 442 349 714 563 272 214
502 403 512 420 41 66 7 183 -62 217 -39 21 -102 23 -141 5z"/>
<path d="M8585 1650 c-1327 -1327 -1645 -1650 -1625 -1650 37 0 3283 3247
3278 3279 -2 17 -323 -299 -1653 -1629z"/>
<path d="M8685 1550 c-1247 -1247 -1545 -1550 -1525 -1550 37 0 3083 3047
3078 3079 -2 17 -303 -279 -1553 -1529z"/>
<path d="M8785 1450 c-1167 -1167 -1445 -1450 -1425 -1450 37 0 2883 2847
2878 2879 -2 17 -284 -260 -1453 -1429z"/>
<path d="M8885 1350 c-1087 -1087 -1345 -1350 -1325 -1350 37 0 2683 2647
2678 2679 -2 17 -264 -240 -1353 -1329z"/>
<path d="M8985 1250 c-1007 -1007 -1245 -1250 -1225 -1250 37 0 2483 2447
2478 2479 -2 17 -244 -220 -1253 -1229z"/>
<path d="M9085 1150 c-927 -927 -1145 -1150 -1125 -1150 37 0 2283 2247 2278
2279 -2 17 -225 -200 -1153 -1129z"/>
<path d="M9185 1050 c-847 -847 -1045 -1050 -1025 -1050 37 0 2083 2047 2078
2079 -2 17 -205 -181 -1053 -1029z"/>
<path d="M9285 950 c-767 -767 -945 -950 -925 -950 37 0 1883 1847 1878 1879
-2 17 -185 -161 -953 -929z"/>
<path d="M9385 850 c-687 -687 -845 -850 -825 -850 37 0 1683 1647 1678 1679
-2 17 -166 -141 -853 -829z"/>
<path d="M9485 750 c-607 -607 -745 -750 -725 -750 37 0 1483 1447 1478 1479
-2 17 -146 -122 -753 -729z"/>
<path d="M9585 650 c-527 -527 -645 -650 -625 -650 37 0 1283 1247 1278 1279
-2 17 -126 -102 -653 -629z"/>
<path d="M9685 550 c-447 -447 -545 -550 -525 -550 37 0 1083 1047 1078 1079
-2 17 -107 -82 -553 -529z"/>
<path d="M9785 450 c-367 -367 -445 -450 -425 -450 37 0 883 847 878 879 -2
17 -87 -63 -453 -429z"/>
<path d="M9885 350 c-287 -287 -345 -350 -325 -350 37 0 683 647 678 679 -2
17 -67 -43 -353 -329z"/>
<path d="M9985 250 c-207 -207 -246 -250 -225 -250 37 0 483 447 478 479 -2
18 -47 -23 -253 -229z"/>
</g>
</svg>
